<svg xmlns="http://www.w3.org/2000/svg" width="516.181" height="462.021" viewBox="0 0 749 671" shape-rendering="geometricPrecision" text-rendering="geometricPrecision" image-rendering="optimizeQuality" fill-rule="evenodd" clip-rule="evenodd"><defs><style>.fil0,.fil1{fill:#2b2a29;fill-rule:nonzero}.fil1{fill:#1194cc}</style></defs><g id="Слой_x0020_1"><path class="fil0" d="M421 568c14-11 31-23 46-35 71-53 131-97 196-168l18 16c-66 73-127 117-199 171-14 10-28 21-46 35l-14-19zM373 84c-1 0-11-5-18-9-2-1-4-2-9-4-75-36-139-43-190-30-35 9-64 28-85 53s-34 57-39 92c-7 54 8 117 48 177 2 4 8 11 14 19 9 12 19 24 24 30l-18 15c-5-6-16-19-25-31l-15-20C17 311 1 243 8 183c5-40 20-76 44-105s57-50 98-61c56-14 126-7 207 32 3 2 2 1 9 4 8 4 18 8 19 9l-11 22z"/><path class="fil0" d="M417 564c6-5 14-11 23-17l24-18c36-26 68-51 100-77s63-55 95-90l4-4 26 24-4 4c-66 73-127 118-200 172-7 5-14 10-22 16-7 5-15 11-24 18l-4 3-21-28 4-3zm29-8c-6 4-12 9-18 14l8 10c7-5 13-10 20-15 8-6 15-11 22-16 71-52 130-97 195-166l-10-9c-31 34-61 62-92 87-32 27-65 51-100 77l-24 18zM369 89s-3-1-7-3l-12-6c-1-1-2-1-8-4-36-17-69-28-99-33-32-5-62-4-87 3-17 4-32 11-46 19-14 9-26 19-37 32-10 12-19 26-25 41s-11 31-13 49c-3 27-1 57 7 87 8 29 21 58 40 86 1 1 3 4 5 7s6 7 9 11c4 6 9 11 12 16 5 6 9 11 12 14l3 4-27 22-4-4c-3-4-7-9-12-15-4-5-9-11-13-16l-9-12c-2-3-5-6-6-8-22-32-36-65-45-97-9-34-11-68-8-99 3-20 8-40 15-58 8-18 18-35 30-50 13-15 28-28 45-39 17-10 35-18 56-24 30-8 63-9 100-4 34 5 71 17 110 36 2 1 3 1 3 1 2 1 4 2 5 3 9 4-9-4 12 6l7 3 5 2-16 31-5-2zm-2-13l2 1 6-12-2-1c-13-6 5 2-12-6l-5-3c-1-1-2-1-3-2-38-18-74-30-107-35-35-5-67-4-96 3-19 5-37 12-53 22S67 65 55 80c-12 14-21 30-28 47s-12 36-15 55c-4 30-2 62 7 95 8 31 23 63 43 94 1 2 3 5 6 8 2 3 6 7 9 12 4 6 9 11 13 16 3 4 6 8 9 10l10-8c-2-3-5-7-8-10-4-5-9-11-12-16l-9-12c-2-3-4-6-5-7-20-29-33-60-41-89-8-31-11-62-7-91 2-18 7-35 14-52 7-16 16-31 27-44s24-25 39-34 31-16 49-21c27-7 58-8 92-3 31 5 66 16 102 33 3 1 5 2 8 4l12 6z"/><path class="fil1" d="M139 496l78-73c4-11 4-20 2-27-1-3-3-6-5-8s-5-4-8-6c-7-3-16-4-25-1-25 23-31 28-37 33l-37 33c-7 11-9 21-8 29 1 5 3 10 6 13s7 6 12 7c7 2 15 1 24-2zm531-123c-8-7-24-23-43-44-55-57-143-147-155-145-14 2-26 9-41 18-25 15-56 33-115 42-24 4-58-3-79-12-7-3-14-7-18-11-7-6-10-13-9-20 1-4 3-8 7-12 20-17 46-38 72-59 32-25 65-51 89-69 27-20 55-35 86-45 30-9 63-13 98-10 40 3 74 16 102 36s50 47 63 79c14 31 20 67 16 105-4 47-20 99-54 146l-8 9-11-10zm-26-60c13 13 24 25 32 33 26-40 40-81 43-120 3-34-2-66-15-93-12-28-31-51-55-69-25-18-55-29-90-32-32-3-62 1-89 9-28 8-53 22-78 41-23 17-55 42-88 68-25 20-49 40-68 56 3 2 6 4 10 5 18 8 46 14 66 11 54-8 83-25 106-39 17-10 31-18 49-21 25-4 118 91 177 152zM268 596l78-73c4-11 4-20 2-27-1-3-3-6-5-8s-5-4-8-6c-7-3-16-4-25-1-2 2-5 5-8 7l-1 2-2 2-38 35c-9 8-17 16-25 24-7 11-9 21-9 29 0 5 2 9 5 12s7 5 11 6c7 2 16 1 25-3zm7 23c-13 5-26 6-37 3-9-2-18-7-24-14s-10-16-11-26v-8c-11 3-21 3-30 0-10-2-18-7-24-15-6-7-10-16-11-27v-11c-10 2-19 2-27 0-10-2-18-7-24-15-6-7-10-16-11-27-1-13 2-29 13-46l1-1 1-1c27-24 33-29 39-34 21-18 36-32 39-34l2-1 2-1c15-6 32-6 45 0 6 3 11 6 16 11s8 10 11 17 4 14 3 22c12-2 23-1 33 4 6 3 11 6 16 11s8 10 11 17c2 5 3 10 3 16 12-3 25-1 36 3 6 3 11 6 16 11s8 10 11 17c2 6 4 13 3 20 14-5 29-4 42 1 6 3 11 6 16 11s8 10 11 17c5 13 5 29-3 47l-1 2-2 2c-14 13-27 24-40 35s-26 22-39 34l-1 1-2 1c-15 7-31 8-44 5-9-2-17-7-24-13-6-7-10-15-11-26v-7zm-30-109l11-11c8-8 17-16 25-24 4-10 4-19 1-25-1-3-3-6-5-8s-5-4-8-6c-7-3-16-4-25-1-25 23-31 28-37 33l-37 33c-7 11-9 21-8 29 1 5 3 10 6 13s7 6 12 7c7 2 15 1 24-2l43-40zm97 128c13-12 26-23 39-33 12-10 25-21 37-32 4-11 4-20 2-27-1-3-3-6-5-8s-5-4-8-6c-7-3-16-4-25-1-25 23-31 28-37 33l-37 33c-6 11-9 20-8 27 0 5 2 8 5 11s7 5 12 6c8 2 17 1 27-3z"/><path class="fil1" d="M136 491l76-71c2-4 2-8 3-11 0-4 0-7-1-10 0-1-1-2-2-3s-2-2-2-3c-1-1-2-2-3-2-1-1-2-1-4-2-3-1-6-2-10-2-3 0-7 0-10 1l-36 32s1-1 0 0l-36 33c-3 5-5 9-6 14-1 4-2 8-1 12 0 2 1 4 1 6 1 2 2 3 3 5 1 1 2 2 4 3s3 2 5 2c3 1 6 1 10 1 3 0 6-1 10-2zm85-64l-79 73h-1c-5 2-9 3-14 3s-9 0-13-1c-3-1-6-2-8-3-3-1-5-3-7-6-2-2-4-5-5-8s-2-6-2-9c0-5 0-10 2-16 1-5 4-11 7-17v-1l38-34c8-7 4-3 11-10l27-24h1c5-2 10-2 15-2s10 1 14 3c2 1 4 2 5 3 2 1 3 2 5 4 1 1 3 3 4 5s2 3 3 5c2 4 2 9 2 15 0 5-1 10-4 16v1l-1 1zm-74-8zm520-43c-8-7-24-24-43-44-28-29-63-65-94-95-29-28-53-49-57-49-13 2-25 9-39 17-13 7-27 16-45 23-19 8-42 15-71 19-12 2-26 1-40-1-15-2-30-7-42-12-4-2-8-4-11-5l-9-6c-4-3-7-7-9-12-2-4-2-9-2-14 0-3 1-6 3-8 1-2 3-5 6-7 9-8 20-17 32-27 13-11 27-22 40-33 15-12 31-24 46-36 16-12 30-23 43-33 14-10 28-19 42-27 15-8 29-14 45-19s32-8 48-10c17-2 34-2 52 0 20 2 39 6 56 12 18 6 34 15 49 25 14 10 27 22 38 36s20 29 27 45 12 34 15 52 4 37 2 56c-2 25-8 51-17 78-9 24-21 48-38 71-4 5-8 9-12 14l-15-14zm-35-51c19 20 35 36 43 43l6 6 5-5c16-22 28-45 36-68 9-25 15-51 17-75 1-18 1-36-2-53s-7-34-14-49-15-30-26-43c-10-13-22-24-36-34s-29-18-46-24c-16-6-34-10-53-11-17-1-34-1-50 0-16 2-31 5-46 9-15 5-29 10-43 18-14 7-28 16-41 26-12 9-27 20-43 33-14 11-30 23-46 36-14 11-28 22-40 32-12 9-22 19-32 27-2 1-3 3-3 4-1 1-1 3-2 4 0 3 0 5 1 7 1 3 3 5 6 8 2 2 4 3 7 5s6 3 10 5c11 5 25 9 39 11 13 2 26 3 37 1 29-4 51-11 69-18s32-15 44-23c15-9 28-16 43-19 9-1 35 21 66 52 30 29 66 66 94 95zm17-17c10 11 20 20 27 28 11-17 19-35 25-52 7-20 12-40 13-60 1-16 1-32-2-47-2-15-7-30-12-44-6-13-13-26-22-37s-19-21-31-29c-12-9-26-16-41-21-14-5-30-8-47-10-16-1-31-1-45 0s-28 4-42 8c-13 4-26 10-39 16-13 7-25 15-37 24s-26 20-42 32c-14 11-30 23-46 36-13 10-25 20-38 30-9 7-17 14-24 20 1 0 2 1 3 1 9 4 21 7 33 9 11 2 21 2 30 1 53-8 81-25 104-38 17-10 32-18 51-22 15-2 46 21 80 53 34 31 72 70 101 100zm-8 8c-29-30-67-69-101-100-33-30-60-52-71-50-17 3-31 11-47 20-24 14-53 31-108 40-10 2-22 1-34-1-13-2-26-6-36-10l-6-3c-2-1-4-2-5-3l-6-4 5-5c9-8 20-16 30-25 12-10 25-20 38-30 15-12 31-25 46-36 16-12 30-23 42-32 13-10 26-18 39-25s27-13 41-17 29-7 44-9 31-2 47 0c18 1 34 5 50 10 16 6 30 13 43 22s24 20 33 31c10 12 18 25 24 40 6 14 11 30 13 46s3 33 2 50c-2 20-6 41-14 63-7 20-17 40-30 60l-4 6-5-5c-8-8-19-20-32-33zM265 591l76-71c2-4 2-8 3-11 0-4 0-7-1-10 0-1-1-2-2-3s-2-2-2-3c-1-1-2-2-3-2-1-1-2-1-4-2-3-1-6-2-10-2-3 0-7 0-10 1l-3 3-3 3-1 2c-14 13-27 25-41 38-4 4-9 8-13 12s-8 8-12 11c-3 5-5 9-6 13s-2 8-1 11c0 2 1 4 1 5 1 1 1 3 2 4s2 2 4 3c1 1 3 1 5 2 3 1 6 1 10 1 3 0 7-1 10-3zm85-64l-79 73h-1c-5 2-10 3-14 4-5 1-9 0-14-1-3-1-5-2-8-3-2-1-5-3-6-5-2-2-3-4-4-7-1-2-2-5-2-8 0-5 0-10 2-15s4-11 7-16v-1l1-1c4-4 8-8 13-12 4-4 9-8 13-12 12-12 26-24 39-36l1-2 1-1 8-7 1-1h1c5-2 10-2 15-2s10 1 14 3c2 1 4 2 5 3 2 1 3 2 5 4 1 1 3 3 4 5s2 3 3 5c2 4 2 9 2 15 0 5-1 10-4 16v1l-1 1zm-80 99c-4 1-9 2-13 2-7 1-14 0-20-2-5-1-10-3-15-6-4-3-8-6-12-10s-7-8-9-14c-2-5-3-10-4-16v-1c-3 1-7 1-10 1-6 0-11-1-16-2s-10-3-15-6-9-6-12-10c-4-4-7-9-9-14s-3-10-4-16v-5h-8c-5 0-10-1-15-2s-10-3-15-6-9-6-12-10c-4-4-7-9-9-14s-3-10-4-16c-1-7 0-16 2-24s6-16 11-25l1-2c10-9 19-17 29-26 15-13 9-8 11-10l26-23c10-9 8-7 12-11l2-2 3-1c8-3 17-5 25-5 9 0 17 2 24 5 3 1 6 3 9 5s6 4 8 7c3 3 5 5 7 9 2 3 4 6 5 10l3 12c0 2 1 4 1 6h12c6 1 12 2 18 5 3 1 6 3 9 5s6 4 8 7c3 3 5 5 7 9 2 3 4 6 5 10l3 9c0 1 0 2 1 3 5-1 9-1 14 0 7 1 13 2 19 5 3 1 6 3 9 5s6 4 8 7c3 3 5 5 7 9 2 3 4 6 5 10 1 3 2 7 3 11 0 1 0 3 1 4 5-1 11-2 16-2 8 0 16 2 22 5 3 1 6 3 9 5s6 4 8 7c3 3 5 5 7 9 2 3 4 6 5 10 3 7 4 16 4 25 0 8-3 17-7 26l-1 3-3 3c-7 7-14 13-21 18-7 6-14 11-20 17-13 11-26 22-39 34l-2 2-3 1c-8 4-16 6-24 7s-16 1-23-1c-5-1-10-3-14-5s-8-5-12-9-7-8-9-13-3-10-4-15zm-14-9c6 0 12-2 17-4l8-3v14c0 4 1 8 3 12s4 7 7 10 6 5 9 7c4 2 7 3 12 4 6 1 13 2 20 1s14-3 20-6h1l1-1c13-12 26-23 40-34 7-6 14-11 20-17 7-6 13-12 20-18l1-1 1-1c3-8 5-16 6-23 0-7-1-14-3-20-1-3-2-5-4-8-2-2-3-5-6-7-2-2-4-4-7-5-2-2-5-3-8-4-6-2-12-4-18-4s-13 1-19 3l-7 2v-8c0-3 0-6-1-10-1-3-1-6-2-9s-2-5-4-8c-2-2-3-5-6-7-2-2-4-4-7-5-2-2-5-3-8-4-5-2-10-3-16-4-5 0-11 0-17 1l-6 1v-6c0-3 0-5-1-7s-1-5-2-7c-1-3-2-5-4-8-2-2-3-5-6-7-2-2-4-4-7-5-2-2-5-3-8-4-5-2-9-3-14-4s-10 0-15 1l-7 1v-17c-1-3-1-6-3-9-1-3-2-5-4-8-2-2-3-5-6-7-2-2-4-4-7-5-2-2-5-3-8-4-6-3-13-4-20-4s-14 1-21 4h-1l-1 1c-7 7-9 8-12 11l-26 23c-9 8-8 7-11 10l-28 25v1c-5 8-8 15-10 22s-3 14-2 20c0 5 2 9 3 13 2 4 4 8 7 11s6 6 10 8 8 4 12 5 8 2 12 2 8 0 13-1l7-2-1 8v10c0 5 2 9 3 13 2 4 4 8 7 11s6 6 10 8 8 4 12 5 9 2 13 2c5 0 9-1 14-2l7-2v14c0 5 1 9 3 12 2 4 4 7 7 10s6 5 9 7c4 2 7 4 12 5s11 2 17 1zm-14-112l11-11c8-7 15-15 24-23 1-4 2-7 2-11s0-7-1-9c0-1-1-2-2-3s-2-2-2-3c-1-1-2-2-3-2-1-1-2-1-4-2-3-1-6-2-10-2-3 0-7 0-10 1l-36 32s1-1 0 0l-36 33c-3 5-5 9-6 14-1 4-2 8-1 12 0 2 1 4 1 6 1 2 2 3 3 5 1 1 2 2 4 3s3 2 5 2c3 1 6 1 10 1 3 0 6-1 10-2l42-39zm13 3c-16 15-33 30-49 46h-1c-5 2-9 3-14 3s-9 0-13-1c-3-1-6-2-8-3-3-1-5-3-7-6-2-2-4-5-5-8s-2-6-2-9c0-5 0-10 2-16 1-5 4-11 7-17v-1l38-34c8-7 4-3 11-10l27-24h1c5-2 10-2 15-2s10 1 14 3c2 1 4 2 5 3 2 1 3 2 5 4 1 1 3 3 4 5s2 3 3 5c2 4 2 9 2 14s-1 10-3 15v1l-1 1c-8 7-16 15-25 24l-6 5zm-44-36zm129 161c13-12 26-23 38-33 6-5 13-10 19-16l18-15c2-4 2-8 3-11 0-4 0-7-1-10 0-1-1-2-2-3s-2-2-2-3c-1-1-2-2-3-2-1-1-2-1-4-2-3-1-6-2-10-2-3 0-7 0-10 1l-36 32s1-1 0 0l-36 33c-3 4-4 9-6 12-1 4-2 7-1 10 0 2 0 3 1 4s1 2 2 3 2 2 4 3 3 1 5 2c3 1 7 1 11 1s7-1 11-3zm45-24c-13 10-25 21-39 33l-1 1h-1c-5 2-10 3-15 4s-10 0-15-1c-3-1-6-2-8-3s-5-3-6-5c-2-2-3-4-4-7-1-2-2-5-2-8 0-4 0-9 2-14 1-5 4-10 7-15v-1l38-34c9-8 4-3 11-10l27-24h1c5-2 10-2 15-2s10 1 14 3c2 1 4 2 5 3 2 1 3 2 5 4 1 1 3 3 4 5s2 3 3 5c2 4 2 9 2 15 0 5-1 10-4 16v1l-1 1c-6 6-13 11-19 17-7 6-13 11-19 16zm-36-40z"/></g></svg>