<svg xmlns="http://www.w3.org/2000/svg" width="649.448" height="586.303" viewBox="0 0 1175 1061" shape-rendering="geometricPrecision" text-rendering="geometricPrecision" image-rendering="optimizeQuality" fill-rule="evenodd" clip-rule="evenodd"><path d="M1 968l91 91c239-226 253-312 591-339 12-1 23-2 35-3-1-18-1-35-2-53-115-3-182-5-238-70-137-156-2-437 222-511 186-61 331 72 309 260 22 2 49 3 71 5 1-48-5-97-14-144-20-73-63-131-125-165C802-36 660 2 544 90c-126 96-162 169-191 322C313 736 225 747-1 966zm87-39l-26 23 41 44 25-24-40-43zm46-44l-26 23 41 44 25-24-40-43zm345-198c-52-19-77-53-90-90-17 61-25 91-70 154 62-46 115-66 160-64z" fill="#2b2a29" stroke="#2b2a29" stroke-width="1.367"/><path d="M962 385c117 0 212 95 212 212s-95 212-212 212c-112 0-203-86-212-196l142 125 2 1c16 9 32 14 49 13 16-1 32-7 45-20l1-1 105-123c15-16 21-34 21-50 0-21-9-39-22-51-33-32-68-64-104-96-10-9-20-18-31-27h2zM755 552c16-74 71-133 142-156l60 54c35 31 69 62 102 94 4 3 6 9 6 15 0 5-2 11-7 17v1L955 698c-4 4-9 5-13 5-6 0-12-2-19-5L756 551z" fill="#1194cc"/></svg>