<svg xmlns="http://www.w3.org/2000/svg" width="526.896" height="517.27" viewBox="0 0 780 765" shape-rendering="geometricPrecision" text-rendering="geometricPrecision" image-rendering="optimizeQuality" fill-rule="evenodd" clip-rule="evenodd"><defs><style>.fil2{fill:#1194cc;fill-rule:nonzero}</style></defs><g id="Слой_x0020_1"><path d="M14 0h766v531H566c2-9 3-18 3-28h184V28H29v475h186c0 10 1 19 3 28H1V0h14zm63 59h641v419H567c-1-10-3-19-6-28h129V87H91v363h131c-3 9-5 18-6 28H63V59h14z" fill="#2b2a29" fill-rule="nonzero"/><path d="M257 177h265v25H257zm35 52h194v25H292z" fill="#2b2a29" stroke="#2b2a29" stroke-width="1.119"/><path class="fil2" d="M391 406c26 0 49 10 66 27s27 40 27 66-10 49-27 66-40 27-66 27-49-10-66-27-27-40-27-66 10-49 27-66 40-27 66-27zm46 47c-12-12-28-19-46-19s-34 7-46 19-19 28-19 46 7 34 19 46 28 19 46 19 34-7 46-19 19-28 19-46-7-34-19-46z"/><path class="fil2" d="M391 351c41 0 78 17 105 43 27 27 43 64 43 105s-17 78-43 105c-27 27-64 43-105 43s-78-17-105-43c-27-27-43-64-43-105s17-78 43-105c27-27 64-43 105-43zm85 63c-22-22-52-35-85-35s-63 13-85 35-35 52-35 85 13 63 35 85 52 35 85 35 63-13 85-35 35-52 35-85-13-63-35-85z"/><path class="fil2" d="M419 623l73 88 25-59 68-3-74-91 22-18 108 135-105 4-37 85-101-124zm-35 19L283 765l-37-84-105-4 108-135 21 17-73 92 67 3 26 59 73-89z"/></g></svg>