<svg xmlns="http://www.w3.org/2000/svg" width="533.348" height="488.636" viewBox="0 0 807 740" shape-rendering="geometricPrecision" text-rendering="geometricPrecision" image-rendering="optimizeQuality" fill-rule="evenodd" clip-rule="evenodd"><defs><style>.fil1{fill:#1194cc;fill-rule:nonzero}</style></defs><g id="Слой_x0020_1"><path d="M321 429h-10c-64 12-55 108-47 185 4 48 8 89-6 109-4 6-9 10-15 13-9 4-19 3-29 0-8-3-17-8-26-15-28-22-58-62-68-86-13-33-16-62-20-91-4-33-8-64-27-92-18-26-34-55-46-83S7 313 3 285C-8 207 3 141 31 92c14-25 32-45 53-60s45-25 72-30c49-8 105 3 163 38C377 5 433-6 482 2c27 4 51 15 73 30 21 15 40 36 54 61 4 7 7 14 11 21h-11c-8 0-16 1-24 2-1-2-2-3-3-5-12-21-27-37-44-50-18-13-38-21-60-25-44-7-96 4-150 39l-8 5-8-5c-54-35-106-46-150-39-22 4-42 12-59 24s-32 29-44 49c-24 42-34 101-24 171 4 25 11 50 22 75 11 27 26 53 43 77 24 35 28 70 33 107 3 26 6 53 17 82 8 20 33 53 57 72 6 5 12 8 17 10 3 1 6 2 7 1l1-1c7-10 4-45 0-86-8-90-19-204 73-221 3-1 7-1 10-1h4c3 0 6 0 9 1 3 0 6 1 8 1 93 17 82 131 73 221-4 41-7 76 0 86 0 1 1 1 1 1 1 1 4 0 7-1 5-2 11-5 17-10 24-19 49-52 57-72 11-29 14-56 17-82 3-28 6-54 17-80 9 5 19 9 30 12-10 23-13 47-16 72-3 28-7 58-20 91-9 24-39 64-68 86-9 7-17 12-26 15-10 4-20 4-29 0-6-3-11-7-15-13-14-20-10-61-6-109 7-76 16-173-47-185-2 0-4-1-6-1h-5z" fill="#2b2a29" fill-rule="nonzero"/><path class="fil1" d="M614 109c53 0 102 22 137 57s57 83 57 137c0 53-22 102-57 137s-83 57-137 57c-53 0-102-22-137-57s-57-83-57-137c0-53 22-102 57-137s83-57 137-57zm116 78c-30-30-70-48-116-48-45 0-86 18-116 48s-48 70-48 116c0 45 18 86 48 116s70 48 116 48c45 0 86-18 116-48s48-70 48-116c0-45-18-86-48-116z"/><path class="fil1" d="M517 284l69 67 114-117 22 21-136 138-90-87z"/></g></svg>