<svg xmlns="http://www.w3.org/2000/svg" width="668.814" height="411.054" viewBox="0 0 1236 760" shape-rendering="geometricPrecision" text-rendering="geometricPrecision" image-rendering="optimizeQuality" fill-rule="evenodd" clip-rule="evenodd"><defs><style>.fil1{fill:#2b2a29;fill-rule:nonzero}</style></defs><g id="Слой_x0020_1"><path d="M1199 666v-1h-138v1h-35c-1-8-2-17-2-25 0-35 11-88 30-111 9-12 20-22 33-29-8-12-13-28-13-44 0-19 7-37 17-50 8-9 18-16 29-20V246h34v142c11 4 20 10 28 19 11 13 17 30 17 50 0 19-6 36-17 49 9 6 18 14 25 24 18 24 30 76 30 111 0 9-1 17-2 25h-35zm2-34c-2-27-10-65-22-81-9-11-20-19-32-24-4 1-8 1-12 1-6 0-12-1-18-3-14 3-27 12-37 25-12 16-20 54-22 81h142zm-77-142h6c5 0 11 1 16 1 3-2 6-4 8-7 6-7 9-17 9-27 0-11-4-21-9-27s-11-10-18-10-14 4-18 10c-6 7-9 17-9 27 0 11 4 21 9 27l6 6z" fill="#1194cc" fill-rule="nonzero"/><path class="fil1" d="M616 37L101 232l537 193 492-192L616 37zM44 216L616-1c203 78 407 155 610 233L638 462 0 233l44-17z"/><path class="fil1" d="M932 318h55v316c-20 29-53 54-97 75-68 32-161 51-264 51s-196-20-264-51c-43-20-76-45-96-74V319h64l45 42-70-22-2 289c16 15 47 37 73 49 64 30 152 48 250 48s186-18 250-48c27-12 54-34 70-49h1V340l-72 21 57-41z"/></g></svg>