<svg xmlns="http://www.w3.org/2000/svg" width="569.352" height="698.426" viewBox="0 0 1260 1546" shape-rendering="geometricPrecision" text-rendering="geometricPrecision" image-rendering="optimizeQuality" fill-rule="evenodd" clip-rule="evenodd"><defs><style>.str0{stroke:#2b2a29;stroke-width:50.1816}.fil0{fill:none}.fil1{fill:#1194cc}</style></defs><g id="Слой_x0020_1"><path class="fil0 str0" d="M423 632c-110-77-253-17-267 119m351 308c-6 0-14 0-19 1-189 33-52 381-100 447-37 52-150-71-173-127-43-105-16-194-77-277-54-74-94-157-106-238-51-327 200-498 476-331 276-167 529 5 478 332-13 81-52 164-106 238-61 83-33 172-77 277-23 56-136 178-173 127-48-66 89-413-100-447-7-1-15-2-23-2z"/><path class="fil0 str0" d="M507 1059c-6 0-14 0-19 1-189 33-52 381-100 447-37 52-150-71-173-127-43-105-16-194-77-277-54-74-94-157-106-238-51-327 200-498 476-331 276-167 529 5 478 332-13 81-52 164-106 238-61 83-33 172-77 277-23 56-136 178-173 127-48-66 89-413-100-447-7-1-15-2-23-2z"/><path class="fil1" d="M679 639h58v226h-58zm442-329h58v58h-58zm81 81h58v58h-58zm-82 83h58v59h-58zm-82-82h58v58h-58zM761 0h58v56h-58zm157 149h58v61h-58zM759 312h58v60h-58zM602 150h58v59h-58z"/><path class="fil1" transform="rotate(90 48.808 771.816)" d="M0 0h58v226H0z"/></g></svg>