<svg xmlns="http://www.w3.org/2000/svg" width="459.606" height="523.725" viewBox="0 0 843 960" shape-rendering="geometricPrecision" text-rendering="geometricPrecision" image-rendering="optimizeQuality" fill-rule="evenodd" clip-rule="evenodd"><path fill="#fefefe" stroke="#1194cc" stroke-width="41.589" stroke-linejoin="round" d="M456 446l1-290-275 487 185-1-2 298 277-494z"/><path d="M313 871v38c-10 3-21 2-32-2s-22-10-34-18c-37-27-77-77-89-106-11-27-17-53-21-78h42c4 20 9 41 17 62 10 24 43 65 75 89 8 6 16 10 22 12 4 1 19 6 20 2v1zM125 618c-5-29-9-34-28-60-24-33-44-67-60-103-15-34-26-69-31-103-15-97 0-178 37-238 18-30 42-55 70-74s60-31 94-37c64-10 138 4 214 47C497 7 571-7 635 3c35 5 67 18 95 37s52 44 70 75c36 60 52 142 37 238-5 34-16 69-31 103-16 36-36 70-60 103-25 35-30 72-35 113-4 35-9 71-26 112-12 30-51 79-89 106-11 8-23 14-34 18-13 5-27 9-39 4-37-15-37-37-34-72 1-10 2-19 3-29l45-76c0 36-4 62-7 97-2 16-6 44 18 36 7-2 14-7 22-12 32-23 65-64 75-89 14-35 19-69 23-101 6-46 11-89 43-132 22-30 41-62 56-95 14-31 24-62 28-93 13-86 0-158-31-210-15-25-35-46-58-62s-50-26-78-30c-58-9-126 5-197 48l-11 6-11-6c-71-43-139-57-197-48-29 4-55 15-78 30s-42 36-57 61c-32 52-45 124-31 210 5 31 15 62 28 93 15 33 34 65 56 95 14 19 18 23 24 42l-29 43zm213-446c-20-14-41-22-61-24-21-2-41 1-59 9s-34 21-46 38c-12 16-19 37-22 60l-41-4c3-31 14-58 29-80 16-23 38-41 63-52s53-16 81-13c27 3 55 13 81 31l-24 34z" fill="#2b2a29" fill-rule="nonzero"/></svg>