<svg xmlns="http://www.w3.org/2000/svg" width="824.145" height="382.666" viewBox="0 0 2485 1154" shape-rendering="geometricPrecision" text-rendering="geometricPrecision" image-rendering="optimizeQuality" fill-rule="evenodd" clip-rule="evenodd"><path d="M1242 147c318-195 437-108 638 38 205 150 279 173 520 250l-87 50c-147 85-257 195-371 308-140 139-218 240-419 291-177 46-388 46-564 0-198-51-277-150-419-291-114-113-225-224-371-308l-87-50c241-77 316-101 520-250 201-147 323-232 638-39z" fill="none" stroke="#2b2a29" stroke-width="68.388"/><path d="M2339 468c-222 93-435 76-625 61-191-15-329-39-477 97-109-118-275-105-469-90-189 15-402 31-624-62l26-63c206 87 411 71 592 57 185-14 347-27 473 66 127-101 293-88 483-73 182 14 387 31 593-56l26 63z" fill="#2b2a29" fill-rule="nonzero"/></svg>