<svg xmlns="http://www.w3.org/2000/svg" width="1245.441" height="517.002" viewBox="0 0 10601 4401" shape-rendering="geometricPrecision" text-rendering="geometricPrecision" image-rendering="optimizeQuality" fill-rule="evenodd" clip-rule="evenodd"><path d="M79 0h10522v4401H0V0h79zm10365 157H158v4086h10286V157z" fill="#2b2a29" fill-rule="nonzero"/><path d="M7108 953h2607v2607H7108V953zm1304 346c558 0 1011 453 1011 1011s-453 1011-1011 1011c-528 0-961-405-1007-921h733v210h565v-565h-565v205h-735c31-531 471-952 1009-952z" fill="#2b2a29" stroke="#2b2a29" stroke-width="6.434"/><path d="M2386 1913v974c0 89 31 101 117 101h587c191 0 348-56 397-209 60-186-16-374-166-418l19-21c2-2 5-4 7-6 90-82 120-181 94-314-55-287-439-230-703-230-269 0-352-36-352 122zm-481-122l-247 1c-75 513 177 1013-329 1019-244 3-337-94-339-334-3-228 2-458 0-686l-247 1c-19 122-12 773 15 881 62 243 265 336 560 337 292 1 501-90 566-330 46-168 25-685 23-888zm2063 111v986c0 96 28 101 119 101 233 0 624 8 839-3l72-190-780-2c-8-469 33-269 499-322 26-35 66-131 77-185h-574l-1-301 700-1c25-47 62-136 74-193h-848c-116 0-178-12-178 111zm1700 1087c70-411-183-467 382-456 8 23 215 433 258 451 50 14 201 19 241-5 23-21-104-204-118-229-40-70-109-172-135-239 54-39 175-56 217-215 32-121 19-268-41-363-114-181-486-143-742-143-370 0-305-77-305 569 0 762-57 629 243 629zm13-660c129 3 260 2 387 1 147-1 218-20 220-175 2-159-57-188-209-189-131 0-267-3-397 1l-2 362zm-3050 469c142 3 331 9 470 0 234-16 147-260 111-292-64-57-326-38-429-36-190 4-154 88-152 329zm0-509c118 1 235 0 352 0 138 0 212-5 214-153 2-139-77-156-202-156-120 0-243-2-364 1v308z"/></svg>