<svg xmlns="http://www.w3.org/2000/svg" width="378.618" height="584.829" viewBox="0 0 583 900" shape-rendering="geometricPrecision" text-rendering="geometricPrecision" image-rendering="optimizeQuality" fill-rule="evenodd" clip-rule="evenodd"><defs><style>.str0{stroke:#2b2a29;stroke-width:34.8972}.fil1{fill:none}.fil2{fill:#2b2a29}</style></defs><g id="Слой_x0020_1"><path d="M229 449l-69-40 20-35 69 40c10 6 14 19 9 28-6 10-19 13-29 7zm-78 135l-69-40 20-35 69 40c10 6 14 19 9 28-6 10-19 13-29 7zm36-66l-68-39 20-35 68 39c10 6 14 19 9 28-6 10-19 13-29 7z" fill="#1194cc"/><rect class="fil1 str0" transform="rotate(-150 203.89 344.838)" width="194" height="523" rx="34" ry="34"/><path class="fil1 str0" d="M412 250l-45-26c-7-4-9-12-5-19l86-149c4-7 12-9 19-5l45 26c7 4 9 12 5 19l-86 149c-4 7-12 9-19 5z"/><rect class="fil2" transform="matrix(-.93422 -.53937 .46037 -.79738 570.754 131.045)" width="195" height="41" rx="20" ry="20"/><rect class="fil2" transform="matrix(-.89799 -.51845 .42271 -.73216 395.823 442.305)" width="195" height="41" rx="20" ry="20"/><rect class="fil2" transform="matrix(.62303 -1.07913 .81905 .47288 -7.073 887.766)" width="195" height="41" rx="20" ry="20"/></g></svg>