<svg xmlns="http://www.w3.org/2000/svg" width="945.335" height="498.633" viewBox="0 0 3281 1731" shape-rendering="geometricPrecision" text-rendering="geometricPrecision" image-rendering="optimizeQuality" fill-rule="evenodd" clip-rule="evenodd"><path d="M1022 755h1213m156-200c88 0 159 75 159 167s-71 167-159 167c-77 0-141-57-156-133-2-11-3-22-3-33 0-92 71-167 159-167zM863 572c88 0 159 75 159 167 0 5 0 10-1 15v1c-8 84-76 150-158 150-88 0-159-75-159-167s71-167 159-167z" fill="none" stroke="#1194cc" stroke-width="91.828"/><path d="M2356 1006c-144 38-122 255-105 428 11 111 21 207-14 254-10 14-22 23-37 29-22 9-47 8-72 0-21-7-42-19-63-34-70-51-145-145-168-201-31-76-40-146-48-211-10-77-19-149-67-214-12-16-23-33-35-50h95l2 3c60 82 70 163 81 251 8 61 16 125 43 191 19 46 81 124 141 168 15 11 30 19 42 24 8 3 14 4 17 2 1 0 2-1 3-3 17-24 9-106-1-201-15-152-33-331 44-435h139zm-825 0c-12 19-25 38-39 56-48 65-57 137-67 214-8 66-17 135-48 211-23 56-97 150-168 201-21 15-43 27-63 34-25 9-50 10-72 0-14-6-27-15-37-29-35-48-25-143-14-254 18-178 40-403-118-431-5-1-11-2-15-2s-9-1-12-1h-10c-5 0-11 1-15 1-158 28-136 252-118 431 11 111 21 207-14 254-10 14-22 23-37 29-22 9-47 8-72 0-21-7-42-19-63-34-70-51-145-145-168-201-31-76-40-146-48-211-10-77-19-149-67-214-13-18-26-36-38-55h95c2 3 4 5 6 8 60 82 70 163 81 251 8 61 16 125 43 191 19 46 81 124 141 168 15 11 30 19 42 24 8 3 14 4 17 2 1 0 2-1 3-3 17-24 9-106-1-201-15-154-34-337 48-440h347c83 103 65 287 49 442-10 95-18 177-1 201 1 2 2 3 3 3 3 1 9 0 17-2 12-4 27-13 42-24 60-44 123-122 141-168 27-67 36-131 43-191 11-88 21-169 81-251 2-3 5-7 7-10h95zM82 576c-7-142 23-262 79-356 35-57 79-105 132-140 52-35 113-59 179-69 121-19 261 8 405 89 143-82 283-108 405-89 67 10 128 34 181 70s98 83 133 141c15 25 28 52 39 81 12-31 26-61 42-88 35-57 79-105 132-140 52-35 113-59 179-69 121-19 261 8 405 89 143-82 283-108 405-89 67 10 128 34 181 70s98 83 133 141c57 94 87 216 79 359h-79c7-128-18-236-68-318-29-48-66-87-110-117-44-29-94-49-149-58-110-17-239 10-373 91l-20 12-20-12c-134-81-263-108-373-91-54 8-104 28-147 57s-80 68-109 115c-41 69-66 155-69 257 0 14 1 29 0 44 0 7 1 13 1 20h-80c0-7 1-13 1-19 0-15-1-29 0-44-4-98-28-183-69-250-29-48-66-87-110-117-44-29-94-49-149-58-110-17-239 10-373 91l-20 12-20-12C721 98 592 71 482 88c-54 8-104 28-147 57s-80 68-109 115c-49 82-75 189-68 315H79zm2962 430c-11 17-23 35-36 51-48 65-57 137-67 214-8 66-17 135-48 211-23 56-97 150-168 201-21 15-43 27-63 34-25 9-50 10-72 0-14-6-27-15-37-29-35-48-25-143-14-254 18-176 40-396-111-429h144c79 104 61 285 45 437-10 95-18 177-1 201 1 2 2 3 3 3 3 1 9 0 17-2 12-4 27-13 42-24 60-44 123-122 141-168 27-67 36-131 43-191 11-88 21-169 81-251 1-2 2-3 4-5h95zM722 330c-37-26-77-41-116-45-40-4-78 2-113 17-34 15-64 40-87 72-22 31-37 69-41 114l-78-8c6-59 26-109 55-151 31-44 72-77 119-98s100-29 153-24c52 6 105 25 153 59l-45 64zm1516-5c-37-26-77-41-116-45-40-4-78 2-113 17-34 15-64 40-87 72-22 31-37 69-41 114l-78-8c6-59 26-109 55-151 31-44 72-77 119-98s100-29 153-24c52 6 105 25 153 59l-45 64z" fill="#2b2a29" fill-rule="nonzero"/><path d="M2822 703h107v111h-107zM0 710h107v111H0zm3174-8h107v111h-107zm-2821 7h107v111H353z" fill="#1194cc"/></svg>