<svg xmlns="http://www.w3.org/2000/svg" width="694.277" height="646.458" viewBox="0 0 1830 1704" shape-rendering="geometricPrecision" text-rendering="geometricPrecision" image-rendering="optimizeQuality" fill-rule="evenodd" clip-rule="evenodd"><defs><style>.str0{stroke:#fefefe;stroke-width:59.7873}.fil1{fill:none}.fil0{fill:#fefefe;fill-rule:nonzero}</style></defs><g id="Слой_x0020_1"><path class="fil0" d="M999 2c204 19 386 110 523 246 66 66 122 143 163 229l-48 35c-39-83-93-158-157-222-127-127-298-212-488-229l6-58zM890 1704c-224-7-426-101-574-249-76-76-138-167-181-268l57-15c40 91 96 173 166 242 139 139 329 227 540 232l-6 58z"/><path class="fil1 str0" d="M821 533c-104-73-237-16-251 111"/><path class="fil0" d="M887 0h-46l-5 1-6 1 7 58 5-1h51l-2-58zM707 26l-6 2-5 1-5 1-5 1-5 1-5 1-5 2-5 2-5 2-5 2-6 2 19 55 6-2 5-1 5-1 5-1 5-1 5-1 5-1 5-1 5-1 5-1 6-2-15-57zM537 90l-2 1-5 2-5 2-5 2-5 2-5 2-5 2-5 3-4 3-4 3-4 3-6 3 30 50 5-3 4-2 4-2 4-2 4-2 4-2 4-2 4-2 4-2 4-2 4-2 2-1-26-52zm-153 98l-4 4-4 3-4 3-4 3-4 3-4 3-4 3-4 3-4 3-4 3-4 3-3 3 40 43 2-2 4-3 4-3 4-3 4-3 4-3 4-3 4-3 4-3 4-3 4-3 4-3-37-46zM255 316l-2 2-3 4-3 4-3 4-3 4-3 4-3 4-3 4-3 4-3 4-3 4-4 5 48 33 3-5 3-4 3-4 3-4 3-4 3-4 3-4 3-4 3-4 3-4 3-4 2-2-46-37zm-99 152l-3 6-2 5-2 5-2 5-2 5-2 5-2 5-2 5-2 5-2 5-2 5-1 2 54 22 1-2 2-4 2-4 2-4 2-4 2-4 2-4 2-4 2-4 2-4 2-4 3-6-52-26zM92 638l-1 2-1 5-1 5-1 5-1 5-1 5-1 5-1 5-1 5-1 5-1 5-1 5 58 11 1-5 1-5 1-5 1-5 1-5 1-5 1-5 1-5 1-5 1-5 1-5 1-2-57-15zM65 817v59l58-2v-55l-58-2zm929 886h5l5-1 5-1 5-1 5-1 5-1 5-1 5-1 5-1 5-1 5-1h2l-10-58-6 1-5 1-5 1-5 1-5 1-5 1-5 1-5 1-5 1h-10l6 58zm178-35l4-1 5-2 5-2 5-2 5-2 5-2 5-2 5-2 5-2 5-2 5-2 4-1-21-54-3 1-5 2-5 2-5 2-5 2-5 2-5 2-5 2-5 2-5 2-5 1-4 1 18 56zm166-72l4-2 4-3 4-3 4-3 4-3 4-3 4-3 4-3 4-3 4-3 4-3 4-3-32-49-4 2-4 3-4 3-4 3-4 3-4 3-4 3-4 2-4 2-4 2-4 2-4 2 29 51zm147-106l2-1 4-3 4-3 4-3 4-3 4-4 4-4 4-4 4-4 4-4 4-4 4-4 1-1-42-41-5 5-3 3-3 3-3 3-3 3-3 3-3 3-3 3-3 3-4 3-4 3-2 1 39 44zm122-134l3-4 3-4 3-4 3-4 3-4 3-4 3-4 3-4 3-4 3-4 3-4 2-4-50-31-2 3-3 4-3 4-3 4-3 4-3 4-3 4-3 4-3 4-3 4-3 4-3 4 47 34zm91-157l1-3 2-5 2-5 2-5 2-5 2-5 2-5 2-5 2-5 2-5 2-5 2-4-55-20-2 4-2 5-2 5-2 5-2 5-2 5-2 4-2 4-2 4-2 4-2 4-1 3 54 23zm55-173l1-6 1-5 1-5 1-5 1-5 1-5 1-5 1-5 1-5 1-5 1-7-58-7-1 6-1 5-1 5-1 5-1 5-1 5-1 5-1 5-1 5-1 5-1 5 57 12zm17-181v-56l-58 5v56l58-1zm-67-394c35 0 67 14 90 37s37 55 37 90-14 67-37 90-55 37-90 37-67-14-90-37-37-55-37-90 14-67 37-90 55-37 90-37zm49 79c-13-13-30-20-49-20s-37 8-49 20c-13 13-20 30-20 49s8 37 20 49c13 13 30 20 49 20s37-8 49-20c13-13 20-30 20-49s-8-37-20-49zM128 962c35 0 67 14 90 37s37 55 37 90-14 67-37 90-55 37-90 37-67-14-90-37-37-55-37-90 14-67 37-90 55-37 90-37zm49 79c-13-13-30-20-49-20s-37 8-49 20c-13 13-20 30-20 49s8 37 20 49c13 13 30 20 49 20s37-8 49-20c13-13 20-30 20-49s-8-37-20-49z"/><path class="fil1 str0" d="M899 934c-5 0-13 0-18 1-178 31-49 358-94 419-35 48-141-66-163-119-40-98-15-182-72-260-51-69-88-148-100-223-48-307 187-467 447-311 259-157 497 5 449 312-12 76-49 154-100 223-57 78-31 161-72 260-22 53-128 167-163 119-45-62 84-388-94-419-7-1-14-2-22-2z"/></g></svg>