<svg xmlns="http://www.w3.org/2000/svg" width="459.621" height="497.212" viewBox="0 0 852 922" shape-rendering="geometricPrecision" text-rendering="geometricPrecision" image-rendering="optimizeQuality" fill-rule="evenodd" clip-rule="evenodd"><g fill-rule="nonzero"><path d="M4 341c-12-91 4-169 39-226 19-32 44-58 73-77S179 7 216 2c63-8 135 7 209 49C499 9 570-6 634 2c37 5 71 17 101 36s55 46 74 78c35 58 51 134 39 225l-2 18H598l-5-13c-8-20-21-37-36-51-17-15-36-27-58-35-13-5-26-8-39-11-14-2-28-3-42-3s-28 2-42 5c-13 3-26 7-38 12-20 9-38 20-52 35-13 13-24 29-32 48l-5 13H8l-2-18zm75-205c-28 46-42 108-35 181h176c9-19 21-35 35-49 19-18 41-33 65-43 15-6 30-11 46-15 16-3 33-5 50-6 17 0 33 1 50 4 16 3 32 7 47 13 27 10 51 25 72 44 16 15 30 32 40 53h184c6-73-8-134-36-180-16-27-37-48-61-64s-53-26-83-30c-57-7-124 8-193 49l-11 7-11-7c-69-42-136-57-193-50-30 4-58 14-82 30s-44 37-60 63z" fill="#1194cc"/><path d="M425 535h-5c-3 0-6 0-8 1-85 15-73 135-63 230 6 59 11 110-7 136-5 7-12 13-20 16-12 5-25 4-38 0-11-4-23-10-34-18-38-27-77-77-90-108-17-41-21-78-26-113-5-41-10-79-36-114-12-17-24-34-34-52s-20-36-27-53l-13-29h268c8-28 17-53 33-72 20-25 48-39 93-40 94-2 112 45 135 112h275l-13 29c-8 18-17 36-27 54s-22 35-34 52c-26 35-31 73-36 114-4 35-9 72-26 113-12 30-52 80-90 108-11 8-23 15-34 18-14 5-27 5-38 0-8-3-14-8-20-16-18-25-13-77-7-136 10-95 22-215-63-230-3 0-6-1-8-1s-5 0-6-1zm-7-42h7c4 0 8 0 12 1 4 0 8 1 11 2 123 22 109 163 97 275-5 51-9 94 0 107l2 2c2 1 5 0 9-1 7-2 14-7 23-13 32-23 66-65 76-89 15-36 19-70 23-102 6-47 11-90 43-134 11-16 22-32 32-49 4-7 8-13 11-20H525l-8-24c0 1 1 3 0 0-18-52-31-89-96-88-31 1-49 10-61 25-13 17-21 42-29 72l-4 16H92c3 7 7 13 11 20 10 16 20 32 32 48 32 44 38 87 43 134 4 32 8 67 23 102 10 25 43 66 76 89 8 6 16 10 23 13 4 1 7 2 9 1l2-2c9-13 5-56 0-107-11-112-25-254 97-275 4-1 9-1 13-1zm97-46c-1-3-1-1 0 0z" fill="#2b2a29"/></g></svg>