<?xml version="1.0" encoding="UTF-8"?>
<!DOCTYPE svg PUBLIC "-//W3C//DTD SVG 1.1//EN" "http://www.w3.org/Graphics/SVG/1.1/DTD/svg11.dtd">
<!-- Creator: CorelDRAW 2017 -->
<svg xmlns="http://www.w3.org/2000/svg" xml:space="preserve" width="183.694mm" height="171.042mm" version="1.1" style="shape-rendering:geometricPrecision; text-rendering:geometricPrecision; image-rendering:optimizeQuality; fill-rule:evenodd; clip-rule:evenodd"
viewBox="0 0 4298 4002"
 xmlns:xlink="http://www.w3.org/1999/xlink">
 <defs>
  <style type="text/css">
   <![CDATA[
    .fil1 {fill:#2B2A29;fill-rule:nonzero}
    .fil0 {fill:#2B2A29;fill-rule:nonzero}
   ]]>
  </style>
 </defs>
 <g id="Слой_x0020_1">
  <metadata id="CorelCorpID_0Corel-Layer"/>
  <path class="fil0" d="M2346 5c478,45 907,257 1228,578 156,156 286,337 384,537l-113 82c-92,-195 -217,-371 -368,-521 -299,-299 -700,-497 -1146,-539l15 -137zm-256 3997c-526,-18 -1001,-238 -1349,-586 -179,-179 -325,-392 -426,-629l134 -36c94,213 226,405 389,567 326,326 772,532 1267,546l-15 137z"/>
  <path class="fil0" d="M2125 2308c-34,-1 -56,6 -57,7 -40,11 -78,46 -104,98 -28,57 -43,133 -35,224 5,62 8,93 11,124 11,112 20,217 21,308 0,48 -8,91 -23,124 -17,37 -43,65 -76,81 -33,16 -72,19 -115,7 -39,-11 -81,-34 -126,-72 -196,-163 -223,-320 -257,-518 -5,-28 -10,-56 -12,-70 -35,-188 -97,-290 -159,-388 -57,-92 -112,-182 -148,-328 -43,-174 -38,-352 8,-508 42,-142 118,-266 224,-356 108,-91 245,-145 407,-143 134,1 283,40 446,127 160,-84 308,-122 439,-123 162,-1 300,53 407,143 106,90 182,214 224,356 46,156 51,334 8,508 -36,146 -91,236 -148,328 -61,99 -124,200 -159,388 -2,13 -7,42 -12,70 -34,197 -61,354 -257,518 -45,38 -88,61 -126,72 -43,12 -81,9 -115,-7 -34,-16 -59,-43 -76,-81 -15,-34 -24,-76 -23,-124 0,-91 10,-196 21,-308 3,-31 6,-63 11,-124 8,-91 -7,-168 -35,-224 -27,-53 -65,-88 -106,-98 -1,0 -27,-9 -57,-10zm3 -137c35,-2 85,13 86,13 81,20 152,80 197,171 39,78 59,179 49,297 -2,23 -7,75 -12,126 -10,109 -20,211 -20,295 0,29 4,51 11,68 3,7 7,12 10,14 4,2 10,2 20,-1 20,-6 45,-20 75,-45 157,-131 180,-266 210,-436 3,-18 6,-36 13,-71 39,-213 109,-326 177,-436 51,-82 100,-163 131,-289 37,-150 33,-303 -6,-437 -35,-117 -96,-218 -181,-290 -83,-70 -191,-112 -318,-111 -121,1 -261,41 -418,130l-23 13 -29 -17c-157,-90 -297,-129 -418,-130 -128,-1 -235,41 -318,111 -85,72 -146,173 -181,290 -40,134 -43,287 -6,437 31,126 81,206 131,289 68,110 137,222 177,436 6,35 10,53 13,71 29,170 53,304 210,436 30,25 55,39 75,45 9,3 16,3 20,1 4,-2 7,-6 10,-14 7,-16 11,-39 11,-68 0,-84 -10,-186 -20,-295 -5,-51 -10,-103 -12,-126 -10,-118 10,-219 49,-297 42,-84 105,-141 179,-165 8,-3 54,-16 108,-15z"/>
  <path class="fil0" d="M1886 1392c-45,-32 -93,-49 -140,-55 -47,-5 -93,2 -134,20 -41,18 -77,47 -104,86 -26,37 -44,83 -50,137l-153 -16c9,-81 36,-152 77,-210 43,-61 101,-108 167,-137 66,-29 139,-41 213,-33 72,8 145,34 213,82l-89 126z"/>
  <path class="fil0" d="M2082 0l-14 1 -13 1 -13 1 -13 1 -13 1 -13 1 -13 1 -13 1 -13 1 -13 1 -14 1 16 136 12 -1 12 -1 12 -1 12 -1 12 -1 12 -1 12 -1 12 -1 12 -1 12 -1 13 -1 -5 -137zm-421 61l-15 4 -12 3 -12 3 -12 3 -12 3 -12 3 -12 4 -12 4 -12 4 -12 4 -15 5 44 130 14 -4 11 -4 11 -3 11 -3 11 -3 11 -3 11 -3 11 -3 11 -3 11 -3 14 -4 -34 -133zm-399 149l-5 2 -11 6 -11 6 -11 6 -11 6 -11 6 -11 6 -11 6 -11 6 -11 6 -10 6 -14 8 71 118 12 -7 10 -6 10 -6 10 -6 10 -5 10 -5 10 -5 10 -5 10 -5 10 -5 10 -5 5 -2 -62 -123zm-358 230l-10 8 -9 8 -9 8 -9 8 -9 8 -9 8 -9 8 -9 8 -9 8 -9 8 -9 8 -6 6 94 101 6 -5 8 -8 8 -8 8 -7 8 -7 8 -7 8 -7 9 -7 9 -7 9 -7 9 -7 10 -8 -86 -107zm-302 301l-5 6 -8 9 -7 9 -7 9 -7 10 -7 10 -7 10 -7 10 -7 10 -7 10 -7 10 -8 12 113 78 8 -11 7 -9 7 -9 7 -9 7 -9 7 -9 7 -9 7 -9 7 -9 7 -9 7 -9 5 -6 -107 -86zm-232 357l-7 14 -5 11 -5 11 -5 11 -5 11 -5 11 -5 11 -5 11 -5 11 -5 11 -5 11 -2 5 127 53 2 -4 4 -10 5 -10 5 -10 5 -10 5 -10 5 -10 5 -10 5 -10 5 -10 5 -10 7 -13 -123 -62zm-151 398l-1 5 -3 12 -3 12 -3 12 -3 12 -3 12 -3 12 -3 12 -3 12 -2 12 -2 12 -2 12 135 25 2 -11 2 -11 2 -11 2 -11 2 -11 3 -11 3 -11 3 -11 3 -11 3 -11 3 -11 1 -5 -133 -34zm-63 421l0 7 0 13 0 13 0 13 0 13 0 13 0 13 0 13 0 13 0 13 0 13 0 6 137 -4 0 -5 0 -12 0 -12 0 -12 0 -12 0 -12 0 -12 0 -12 0 -12 0 -12 0 -12 0 -7 -137 -5zm2182 2080l12 -1 13 -1 13 -1 13 -1 13 -1 13 -2 13 -2 13 -2 12 -2 12 -2 12 -2 4 -1 -22 -135 -15 2 -12 2 -12 2 -12 2 -12 2 -12 1 -12 1 -12 1 -12 1 -12 1 -12 1 13 137zm418 -83l9 -3 12 -4 12 -4 12 -4 12 -4 12 -4 12 -4 12 -4 11 -4 11 -4 11 -4 9 -3 -50 -128 -8 3 -11 4 -11 4 -11 4 -11 4 -11 4 -11 4 -11 4 -11 4 -11 4 -11 4 -9 3 42 131zm391 -170l9 -5 10 -6 10 -6 10 -6 10 -6 10 -6 10 -6 10 -6 10 -6 10 -7 10 -7 9 -6 -76 -114 -9 6 -9 6 -9 6 -9 6 -10 6 -10 6 -10 6 -10 6 -10 6 -10 6 -10 6 -9 5 68 119zm346 -248l4 -3 9 -8 9 -8 9 -8 9 -8 9 -8 9 -8 9 -8 9 -8 9 -8 8 -9 8 -9 3 -3 -99 -95 -11 11 -8 8 -8 8 -8 8 -8 8 -8 8 -8 8 -8 8 -8 8 -8 8 -8 8 -4 3 92 102zm286 -316l7 -9 7 -10 7 -10 7 -10 7 -10 7 -10 7 -10 7 -10 7 -10 7 -10 6 -10 5 -8 -116 -73 -5 8 -6 9 -6 9 -6 9 -6 9 -6 9 -6 9 -6 9 -6 9 -6 9 -7 9 -7 9 111 80zm213 -369l3 -8 5 -11 5 -11 5 -11 5 -11 5 -11 5 -11 4 -11 4 -11 4 -11 4 -11 4 -11 -129 -46 -4 10 -4 11 -4 11 -4 11 -4 11 -4 11 -4 11 -4 11 -4 10 -4 10 -5 10 -3 8 126 55zm130 -405l3 -13 2 -12 2 -12 2 -12 2 -12 2 -12 2 -12 2 -12 2 -12 2 -12 2 -16 -136 -17 -2 14 -2 12 -2 12 -2 12 -2 12 -2 12 -2 11 -2 11 -2 11 -2 11 -2 12 135 28zm41 -424l0 -7 0 -13 0 -13 0 -13 0 -13 -1 -13 -1 -13 -1 -13 -1 -13 -1 -13 -1 -13 -1 -7 -137 11 0 6 1 12 1 12 1 12 1 12 1 12 0 12 0 12 0 12 0 12 0 12 0 7 137 -2z"/>
  <path class="fil1" d="M3997 1059c83,0 158,34 212,88 54,54 88,129 88,212 0,83 -34,158 -88,212 -54,54 -129,88 -212,88 -83,0 -158,-34 -212,-88 -54,-54 -88,-129 -88,-212 0,-83 34,-158 88,-212 54,-54 129,-88 212,-88zm115 185c-29,-29 -70,-48 -115,-48 -45,0 -86,18 -115,48 -29,29 -48,70 -48,115 0,45 18,86 48,115 29,29 70,48 115,48 45,0 86,-18 115,-48 29,-29 48,-70 48,-115 0,-45 -18,-86 -48,-115z"/>
  <path class="fil1" d="M300 2258c83,0 158,34 212,88 54,54 88,129 88,212 0,83 -34,158 -88,212 -54,54 -129,88 -212,88 -83,0 -158,-34 -212,-88 -54,-54 -88,-129 -88,-212 0,-83 34,-158 88,-212 54,-54 129,-88 212,-88zm115 185c-29,-29 -70,-48 -115,-48 -45,0 -86,18 -115,48 -29,29 -48,70 -48,115 0,45 18,86 48,115 29,29 70,48 115,48 45,0 86,-18 115,-48 29,-29 48,-70 48,-115 0,-45 -18,-86 -48,-115z"/>
 </g>
</svg>
